<svg width="24" height="24" viewBox="0 0 24 24" fill="none" xmlns="http://www.w3.org/2000/svg">
<path d="M22.772 1.22749C21.986 0.441539 20.92 0 19.8085 0C18.697 0 17.631 0.441539 16.8451 1.22749L2.02084 16.0543C1.58853 16.4863 1.29025 17.0341 1.16188 17.6316L0.0191854 22.9636C-0.0109493 23.1037 -0.00551402 23.249 0.0349947 23.3864C0.0755034 23.5238 0.149794 23.6488 0.251079 23.7501C0.352365 23.8514 0.477416 23.9257 0.614807 23.9662C0.752199 24.0067 0.897551 24.0122 1.03758 23.982L6.36961 22.8393C6.96716 22.711 7.51489 22.4127 7.94693 21.9804L22.7729 7.15443C23.5586 6.36835 24 5.3024 24 4.19096C24 3.07952 23.5586 2.01357 22.7729 1.22749H22.772ZM18.0572 2.43962C18.5252 1.99261 19.1496 1.74649 19.7968 1.75392C20.4439 1.76135 21.0625 2.02174 21.5201 2.47938C21.9778 2.93702 22.2381 3.55558 22.2456 4.20274C22.253 4.8499 22.0069 5.47427 21.5599 5.9423L20.7884 6.71381L17.2857 3.212L18.0572 2.43962ZM16.0735 4.42413L19.5762 7.92681L6.73565 20.7691C6.53697 20.9677 6.28512 21.1046 6.01043 21.1634L1.97197 22.0292L2.83779 17.9916C2.89658 17.7169 3.03352 17.4651 3.23212 17.2664L16.0718 4.42499L16.0735 4.42413Z" fill="white"/>
</svg>
