<svg width="18" height="14" viewBox="0 0 18 14" fill="none" xmlns="http://www.w3.org/2000/svg">
<path fill-rule="evenodd" clip-rule="evenodd" d="M0.10497 6.404C-0.0349899 6.78569 -0.0349899 7.20831 0.10497 7.59C1.47983 11.34 4.94415 14 9.00014 14C10.9256 14.0004 12.8061 13.3888 14.3939 12.2457C15.9817 11.1026 17.2024 9.48151 17.8953 7.596C18.0344 7.214 18.0354 6.791 17.8953 6.41C16.5204 2.66 13.0561 0 9.00014 0C7.07467 -0.000442065 5.19422 0.611173 3.6064 1.75431C2.01859 2.89744 0.797861 4.51849 0.10497 6.404ZM11.695 9.82843C12.4097 9.07828 12.8113 8.06087 12.8113 7C12.8113 5.93913 12.4097 4.92172 11.695 4.17157C10.9803 3.42143 10.0109 3 9.00014 3C7.98937 3 7.01999 3.42143 6.30527 4.17157C5.59054 4.92172 5.18901 5.93913 5.18901 7C5.18901 8.06087 5.59054 9.07828 6.30527 9.82843C7.01999 10.5786 7.98937 11 9.00014 11C10.0109 11 10.9803 10.5786 11.695 9.82843ZM10.6844 8.76777C10.2377 9.23661 9.63187 9.5 9.00014 9.5C8.3684 9.5 7.76254 9.23661 7.31584 8.76777C6.86914 8.29893 6.61818 7.66304 6.61818 7C6.61818 6.33696 6.86914 5.70107 7.31584 5.23223C7.76254 4.76339 8.3684 4.5 9.00014 4.5C9.63187 4.5 10.2377 4.76339 10.6844 5.23223C11.1311 5.70107 11.3821 6.33696 11.3821 7C11.3821 7.66304 11.1311 8.29893 10.6844 8.76777Z" fill="#80A1D4"/>
</svg>
