<svg width="15" height="24" viewBox="0 0 15 24" fill="none" xmlns="http://www.w3.org/2000/svg">
<path d="M4.62987 0.54131C6.00032 0.00308102 7.50832 -0.137744 8.96318 0.136643C10.418 0.411029 11.7544 1.0883 12.8033 2.08282C13.8522 3.07734 14.5665 4.34443 14.8559 5.72387C15.1453 7.1033 14.9968 8.53312 14.4291 9.83252C13.8614 11.1319 12.9001 12.2425 11.6668 13.0239C10.9622 13.4703 10.1868 13.7978 9.375 13.9966V16.0002C9.375 16.982 8.53553 17.778 7.5 17.778C6.46447 17.778 5.625 16.982 5.625 16.0002V12.4446C5.625 11.4627 6.46447 10.6668 7.5 10.6668C8.24168 10.6668 8.9667 10.4582 9.58339 10.0676C10.2001 9.67686 10.6807 9.12155 10.9645 8.47185C11.2484 7.82215 11.3226 7.10724 11.1779 6.41753C11.0332 5.72781 10.6761 5.09426 10.1517 4.597C9.6272 4.09975 8.95902 3.76111 8.23159 3.62391C7.50416 3.48672 6.75016 3.55713 6.06494 3.82625C5.37971 4.09536 4.79404 4.55109 4.38199 5.13581C3.96993 5.72052 3.75 6.40796 3.75 7.11119C3.75 8.09304 2.91053 8.88898 1.875 8.88898C0.839467 8.88898 0 8.09304 0 7.11119C0 5.70473 0.439868 4.32985 1.26398 3.16042C2.08809 1.991 3.25943 1.07954 4.62987 0.54131Z" fill="white"/>
<path d="M9.15702 23.3491C8.71748 23.7659 8.12134 24 7.49974 24C6.87814 24 6.28199 23.7659 5.84246 23.3491C5.40292 22.9324 5.15599 22.3671 5.15599 21.7778C5.15599 21.1884 5.40292 20.6231 5.84246 20.2064C6.28199 19.7896 6.87814 19.5555 7.49974 19.5555C8.12134 19.5555 8.71748 19.7896 9.15702 20.2064C9.59656 20.6231 9.84349 21.1884 9.84349 21.7778C9.84349 22.3671 9.59656 22.9324 9.15702 23.3491Z" fill="white"/>
</svg>
