<svg width="831" height="763" viewBox="0 0 831 763" fill="none" xmlns="http://www.w3.org/2000/svg">
<path d="M810.058 421.93C862.699 358.693 803.856 281.442 748.924 220.065C698.403 163.615 633.783 115.99 573.573 137.108C530.01 152.388 493.345 225.258 489.917 228.783C489.917 228.783 475.627 226.659 474.998 226.586C496.505 229.139 517.234 234.23 536.877 241.551C536.877 241.551 555.094 189.29 591.095 182.432C635.921 173.894 678.452 207.462 716.608 247.323C755.927 288.399 788.33 339.964 776.376 380.094C766.72 412.509 703.603 427.054 703.603 427.054C706.861 439.844 709.202 453 710.553 466.448C720.356 461.377 784.086 453.13 810.058 421.93Z" fill="url(#paint0_linear_296_1585)"/>
<path fill-rule="evenodd" clip-rule="evenodd" d="M474.998 226.586L474.975 226.583C464.475 225.338 453.79 224.697 442.956 224.697C344.291 224.697 258.035 277.825 211.234 357.033C187.576 397.073 174 443.778 174 493.653C174 493.653 282.318 637.579 442.956 636.579C603.594 635.579 710.553 466.448 710.553 466.448C709.202 453 706.861 439.844 703.603 427.054C681.766 341.336 618.758 272.069 536.877 241.551C517.234 234.23 496.505 229.139 474.998 226.586Z" fill="url(#paint1_linear_296_1585)"/>
<path d="M442.956 762.609C591.496 762.609 711.912 642.193 711.912 493.653C711.912 484.47 711.452 475.394 710.553 466.448C710.553 466.448 603.594 635.579 442.956 636.579C282.318 637.579 174 493.653 174 493.653C174 642.193 294.416 762.609 442.956 762.609Z" fill="url(#paint2_linear_296_1585)"/>
<path d="M371.665 11.745C374.101 24.0243 373.408 36.4341 370.316 48.3734C364.909 69.2411 353.101 89.1486 339.753 108.639C313.059 147.617 280.449 185.864 274.834 217.4C269.517 247.273 275.319 269.941 286.866 286.089C291.803 293.002 297.991 298.928 305.111 303.561C351.363 262.357 384.56 195.462 381.146 135.302C397.351 194.691 382.731 261.802 337.294 315.011C376.887 319.817 424.596 296.693 445.62 234.535C455.36 205.736 458.855 158.968 445.788 113.775C434.695 75.4117 412.148 38.175 371.667 11.7477L371.665 11.745Z" fill="url(#paint3_radial_296_1585)"/>
<path d="M381.146 135.302C384.56 195.462 351.363 262.357 305.111 303.561L337.294 315.011C382.731 261.802 397.351 194.691 381.146 135.302Z" fill="#13AB5B"/>
<path d="M106.298 287.233C149.901 330.676 215.455 351.137 284.156 337.94L290.131 304.3C231.455 324.149 156.906 319.938 106.298 287.233Z" fill="#13AB5B"/>
<path d="M3.5872 217.898C6.54759 266.159 27.7726 304.195 55.6365 332.803C88.458 366.5 130.854 386.578 160.699 392.343C225.111 404.788 268.761 374.736 284.156 337.94C215.455 351.137 149.901 330.676 106.298 287.233C156.906 319.938 231.455 324.149 290.131 304.3C289.631 295.822 287.545 287.512 283.983 279.802C275.653 261.781 258.775 245.528 230.182 235.387C200 224.684 150.654 234.134 103.579 238.075C80.0435 240.048 56.914 240.488 36.1039 234.872C24.1912 231.657 13.0643 226.09 3.58947 217.898L3.5872 217.898Z" fill="url(#paint4_radial_296_1585)"/>
<defs>
<linearGradient id="paint0_linear_296_1585" x1="638.13" y1="240.394" x2="740.675" y2="512.532" gradientUnits="userSpaceOnUse">
<stop stop-color="#80A1D4"/>
<stop offset="1" stop-color="#3D5A80"/>
</linearGradient>
<linearGradient id="paint1_linear_296_1585" x1="514.608" y1="319.939" x2="511.711" y2="659.959" gradientUnits="userSpaceOnUse">
<stop stop-color="#80A1D4"/>
<stop offset="0.615" stop-color="#3D5A80"/>
</linearGradient>
<linearGradient id="paint2_linear_296_1585" x1="502.297" y1="530.958" x2="502.297" y2="762.609" gradientUnits="userSpaceOnUse">
<stop stop-color="#3D5A80"/>
<stop offset="1" stop-color="#2D435F"/>
</linearGradient>
<radialGradient id="paint3_radial_296_1585" cx="0" cy="0" r="1" gradientUnits="userSpaceOnUse" gradientTransform="translate(223.678 195.256) rotate(74.8112) scale(150 243.528)">
<stop stop-color="#99E2B4"/>
<stop offset="1" stop-color="#0FA958"/>
</radialGradient>
<radialGradient id="paint4_radial_296_1585" cx="0" cy="0" r="1" gradientUnits="userSpaceOnUse" gradientTransform="translate(258.926 213.34) rotate(74.8112) scale(150 243.528)">
<stop stop-color="#99E2B4"/>
<stop offset="1" stop-color="#0FA958"/>
</radialGradient>
</defs>
</svg>
