<svg width="64" height="64" viewBox="0 0 64 64" fill="none" xmlns="http://www.w3.org/2000/svg">
<path fill-rule="evenodd" clip-rule="evenodd" d="M1.25893 25.0315L1.36507 24.6825L1.47441 24.3356L1.58683 23.9911L1.7022 23.6487L1.82038 23.3086L1.94125 22.9707L2.06469 22.635L2.19056 22.3015L2.31877 21.9702L2.44921 21.6409L2.58175 21.3138L2.71629 20.9888L2.85275 20.6658L2.99104 20.3448L3.13105 20.0257L3.27273 19.7086L3.416 19.3934L3.56078 19.08L3.70703 18.7684L3.8547 18.4585L4.00373 18.1503L4.15409 17.8438L4.30576 17.5389L4.45871 17.2356L4.61293 16.9337L4.76841 16.6334L4.92514 16.3345L5.08314 16.037L5.24242 15.7409L5.403 15.4461L5.5649 15.1526L5.72816 14.8604L5.8928 14.5694L6.05889 14.2797L6.22646 13.9912L6.39558 13.7039L6.56628 13.4178L6.73866 13.1329L6.91275 12.8492L7.08863 12.5667L7.26639 12.2855L7.44608 12.0055L7.62779 11.7267L7.8116 11.4492L7.99759 11.1731L8.18584 10.8983L8.37642 10.6249L8.56943 10.353L8.76495 10.0825L8.96305 9.81363L9.16382 9.54635L9.36734 9.28075L9.57368 9.0169L9.78292 8.75486L9.99515 8.49474L10.2104 8.2366L10.4288 7.98054L10.6503 7.72664L10.8751 7.47499L11.1032 7.22571L11.3346 6.97887L11.5695 6.7346L11.8077 6.49298L12.0494 6.25413L12.2946 6.01815L12.5434 5.78516L12.7957 5.55526L13.0516 5.32858L13.311 5.10521L13.5741 4.88527L13.8407 4.66887L14.1108 4.45614L14.3846 4.24717L14.6618 4.04208L14.9426 3.84097L15.2268 3.64395L15.5145 3.45113L15.8056 3.26261L16.1 3.07849L16.3977 2.89887L16.6986 2.72383L17.0026 2.55348L17.3097 2.3879L17.6199 2.22718L17.9329 2.07139L18.2488 1.92061L18.5674 1.77493L18.8886 1.63442L19.2125 1.49919L19.5388 1.3693L19.8675 1.24483L20.1984 1.12587L20.5316 1.01249L20.8668 0.904781L21.204 0.802811L21.543 0.706657L21.8838 0.616379L22.2262 0.532059L22.5701 0.453751L22.9153 0.381516L23.2619 0.315407L23.6095 0.255486L23.9581 0.20179L24.3076 0.154358L24.6578 0.113228L25.0085 0.078434L25.3597 0.0499954L25.7111 0.0279198L26.0627 0.0122375L26.4142 0.00292969L26.7656 0L27.1166 0.00344467L27.4671 0.0132332L27.817 0.0293465L28.1661 0.0517387L28.5142 0.0803909L28.8613 0.115227L29.207 0.156197L29.5514 0.203243L29.8942 0.25629L30.2353 0.315254L30.5746 0.380039L30.9119 0.450562L31.247 0.526714L31.5799 0.608379L31.9104 0.695446L32.2384 0.787796L32.5638 0.885281L32.8864 0.987782L33.2062 1.09515L33.523 1.20724L33.8368 1.32389L34.1474 1.44496L34.4548 1.57027L34.7589 1.69967L35.0596 1.83299L35.3569 1.97005L35.6507 2.11069L35.9409 2.25472L36.2276 2.40197L36.5106 2.55227L36.79 2.70543L37.0657 2.86126L37.3377 3.0196L37.6061 3.18024L37.8707 3.34299L38.1318 3.50771L38.3891 3.67418L38.6429 3.84222L38.8931 4.01167L39.1397 4.18233L39.3829 4.35403L39.6226 4.5266L39.859 4.69987L40.092 4.87367L40.3219 5.04784L40.5486 5.22222L40.7723 5.39667L40.993 5.57102L41.2109 5.74514L41.4261 5.91889L41.6386 6.09214L41.8487 6.26476L42.0563 6.43665L42.2617 6.60768L42.465 6.77774L42.6663 6.94676L42.8657 7.11464L43.0633 7.28128L43.2594 7.44663L43.454 7.61061L43.6473 7.77317L43.8395 7.93425L44.0306 8.09381L44.2208 8.25182L44.4103 8.40825L44.5992 8.56306L44.7877 8.71625L44.9758 8.86781L45.1638 9.01773L45.3517 9.16602L45.5397 9.31269L45.728 9.45777L45.9166 9.60126L46.1058 9.74323L46.2956 9.88369L46.4861 10.0227L46.6775 10.1603L46.8698 10.2966L47.0633 10.4316L47.258 10.5654L47.4539 10.6981L47.6513 10.8297L47.8501 10.9604L48.0504 11.0903L48.2524 11.2194L48.456 11.3479L48.6614 11.4759L48.8685 11.6034L49.0775 11.7307L49.2884 11.8579L49.5011 11.985L49.7158 12.1122L49.9323 12.2396L50.1508 12.3675L50.3711 12.4958L50.5933 12.6248L50.8174 12.7546L51.0433 12.8854L51.2709 13.0172L51.5003 13.1502L51.7313 13.2847L51.9639 13.4206L52.1979 13.5582L52.4334 13.6976L52.6703 13.8389L52.9083 13.9823L53.1475 14.1279L53.3876 14.2758L53.6287 14.4262L53.8704 14.5791L54.1128 14.7347L54.3557 14.8931L54.5989 15.0544L54.8423 15.2187L55.0857 15.3862L55.329 15.5568L55.5721 15.7307L55.8148 15.9079L56.0568 16.0886L56.2981 16.2728L56.5385 16.4606L56.7778 16.6519L57.0159 16.847L57.2524 17.0458L57.4874 17.2483L57.7206 17.4546L57.9518 17.6648L58.1808 17.8788L58.4075 18.0967L58.6316 18.3184L58.853 18.5441L59.0716 18.7736L59.287 19.007L59.4992 19.2442L59.708 19.4853L59.9132 19.7302L60.1146 19.9788L60.3121 20.2312L60.5055 20.4873L60.6946 20.747L60.8794 21.0103L61.0596 21.2771L61.2352 21.5474L61.4059 21.8211L61.5717 22.0981L61.7325 22.3783L61.888 22.6617L62.0383 22.9481L62.1833 23.2376L62.3227 23.5299L62.4567 23.825L62.585 24.1228L62.7076 24.4232L62.8245 24.7262L62.9357 25.0315L63.041 25.3391L63.1407 25.649L63.2345 25.9609L63.3226 26.2749L63.405 26.5908L63.4817 26.9085L63.5527 27.228L63.6182 27.5491L63.6781 27.8718L63.7327 28.196L63.7818 28.5217L63.8257 28.8488L63.8644 29.1771L63.898 29.5068L63.9267 29.8376L63.9504 30.1696L63.9694 30.5028L63.9838 30.837L63.9936 31.1724L63.999 31.5088L64 31.8462L63.9968 32.1847L63.9896 32.5242L63.9783 32.8647L63.9631 33.2063L63.9442 33.549L63.9215 33.8927L63.8953 34.2375L63.8655 34.5835L63.8323 34.9305L63.7957 35.2788L63.7558 35.6282L63.7126 35.9788L63.6662 36.3308L63.6166 36.684L63.5639 37.0386L63.5081 37.3945L63.4492 37.7519L63.3872 38.1107L63.322 38.4709L63.2537 38.8326L63.1823 39.1959L63.1076 39.5607L63.0297 39.927L62.9484 40.2949L62.8638 40.6643L62.7757 41.0353L62.684 41.4079L62.5887 41.7819L62.4896 42.1575L62.3866 42.5345L62.2796 42.9129L62.1685 43.2927L62.0531 43.6738L61.9332 44.0561L61.8088 44.4395L61.6798 44.8241L61.5459 45.2096L61.407 45.596L61.2631 45.9832L61.1138 46.371L60.9592 46.7594L60.799 47.1482L60.6332 47.5372L60.4615 47.9264L60.2839 48.3156L60.1002 48.7046L59.9102 49.0932L59.714 49.4813L59.5113 49.8687L59.302 50.2552L59.086 50.6407L58.8633 51.0248L58.6337 51.4075L58.3972 51.7885L58.1536 52.1677L57.9029 52.5447L57.645 52.9194L57.3799 53.2916L57.1075 53.661L56.8278 54.0274L56.5407 54.3906L56.2463 54.7504L55.9445 55.1065L55.6353 55.4588L55.3188 55.8069L54.9948 56.1507L54.6636 56.49L54.325 56.8244L53.9792 57.1537L53.6261 57.4778L53.2658 57.7964L52.8985 58.1092L52.5241 58.416L52.1427 58.7166L51.7545 59.0107L51.3595 59.2981L50.9579 59.5787L50.5497 59.8521L50.1352 60.1182L49.7144 60.3768L49.2875 60.6277L48.8546 60.8706L48.416 61.1054L47.9717 61.3319L47.5221 61.55L47.0672 61.7595L46.6073 61.9602L46.1425 62.152L45.6732 62.3347L45.1995 62.5083L44.7215 62.6727L44.2397 62.8277L43.7541 62.9733L43.2651 63.1093L42.7728 63.2357L42.2775 63.3526L41.7795 63.4597L41.279 63.5572L40.7763 63.6449L40.2715 63.7229L39.765 63.7912L39.257 63.8498L38.7478 63.8987L38.2375 63.938L37.7265 63.9677L37.2149 63.9879L36.7031 63.9986L36.1912 64L35.6794 63.9921L35.1681 63.975L34.6573 63.9489L34.1474 63.9138L33.6386 63.8699L33.1309 63.8172L32.6247 63.756L32.1201 63.6864L31.6174 63.6085L31.1166 63.5225L30.6179 63.4285L30.1216 63.3267L29.6277 63.2173L29.1365 63.1004L28.6479 62.9762L28.1623 62.8449L27.6796 62.7068L27.2001 62.5619L26.7237 62.4105L26.2507 62.2527L25.781 62.0889L25.3148 61.9191L24.8521 61.7436L24.393 61.5626L23.9375 61.3762L23.4857 61.1848L23.0377 60.9884L22.5933 60.7872L22.1527 60.5816L21.7159 60.3716L21.2828 60.1574L20.8535 59.9393L20.4279 59.7173L20.0061 59.4917L19.588 59.2626L19.1736 59.0302L18.7628 58.7947L18.3556 58.5561L17.9521 58.3146L17.552 58.0704L17.1555 57.8236L16.7624 57.5742L16.3727 57.3224L15.9864 57.0684L15.6034 56.8121L15.2236 56.5536L14.8471 56.2931L14.4737 56.0305L14.1035 55.7659L13.7364 55.4994L13.3724 55.2309L13.0115 54.9605L12.6536 54.6881L12.2989 54.4138L11.9472 54.1375L11.5987 53.8591L11.2533 53.5788L10.911 53.2964L10.572 53.0118L10.2362 52.7251L9.90373 52.4362L9.57465 52.145L9.24902 51.8515L8.92693 51.5555L8.60848 51.2572L8.29377 50.9563L7.9829 50.6528L7.67599 50.3467L7.37315 50.0379L7.07453 49.7264L6.78024 49.412L6.49043 49.0949L6.20524 48.7748L5.92482 48.4519L5.64932 48.126L5.37889 47.7971L5.11369 47.4653L4.85387 47.1304L4.59959 46.7925L4.351 46.4517L4.10826 46.1078L3.87153 45.761L3.64095 45.4112L3.41667 45.0586L3.19883 44.7031L2.98758 44.3447L2.78302 43.9837L2.5853 43.6199L2.39453 43.2536L2.21081 42.8848L2.03424 42.5135L1.86492 42.1399L1.70292 41.7642L1.54829 41.3863L1.4011 41.0065L1.2614 40.6249L1.1292 40.2415L1.00451 39.8566L0.887341 39.4702L0.777683 39.0826L0.67551 38.6939L0.580788 38.3042L0.493488 37.9137L0.413563 37.5224L0.34095 37.1307L0.275593 36.7385L0.217419 36.3462L0.166355 35.9537L0.122307 35.5612L0.0851974 35.1689L0.0549202 34.7769L0.0313683 34.3854L0.0144463 33.9944L0.00402451 33.6041L0 33.2147L0.00223923 32.8261L0.0106163 32.4386L0.0250015 32.0522L0.0452652 31.6671L0.07127 31.2832L0.102882 30.9009L0.139957 30.52L0.182365 30.1407L0.229958 29.7631L0.282593 29.3872L0.340141 29.0132L0.402458 28.641L0.469414 28.2707L0.540867 27.9024L0.61668 27.5361L0.696735 27.1719L0.780899 26.8098L0.869045 26.4498L0.961052 26.0919L1.05678 25.7362L1.15612 25.3828L1.25893 25.0315Z" fill="white"/>
</svg>
