<svg width="24" height="25" viewBox="0 0 24 25" fill="none" xmlns="http://www.w3.org/2000/svg">
<path d="M8.71234 0.25C10.2383 0.25 11.4695 0.25 12.4373 0.380605C13.4419 0.514558 14.288 0.804791 14.96 1.47567C15.5449 2.06172 15.8418 2.78172 15.997 3.62786C16.1477 4.45056 16.1767 5.45633 16.1834 6.66414C16.1846 6.88618 16.0975 7.0996 15.9413 7.25744C15.7852 7.41529 15.5727 7.50463 15.3507 7.50581C15.1286 7.507 14.9152 7.41993 14.7574 7.26376C14.5995 7.10759 14.5102 6.89511 14.509 6.67307C14.5023 5.45298 14.4711 4.58786 14.3505 3.93037C14.2333 3.29856 14.0469 2.9313 13.7756 2.66005C13.4664 2.35084 13.0322 2.14991 12.2129 2.0394C11.3701 1.92665 10.2528 1.92442 8.65094 1.92442H7.53469C5.93176 1.92442 4.81439 1.92665 3.97162 2.0394C3.1523 2.14991 2.71919 2.35195 2.40887 2.66005C2.10079 2.96926 1.89986 3.40237 1.78936 4.22284C1.6755 5.06451 1.67438 6.18302 1.67438 7.78488V16.7151C1.67438 18.317 1.6755 19.4344 1.78936 20.2783C1.89986 21.0976 2.10079 21.5307 2.40999 21.84C2.71919 22.1492 3.1523 22.3501 3.97162 22.4606C4.81439 22.5733 5.93176 22.5756 7.53469 22.5756H8.65094C10.2528 22.5756 11.3701 22.5733 12.214 22.4606C13.0322 22.3501 13.4664 22.148 13.7756 21.84C14.0469 21.5676 14.2333 21.2014 14.3505 20.5696C14.4711 19.9121 14.5023 19.047 14.509 17.8269C14.5096 17.717 14.5318 17.6082 14.5745 17.5069C14.6171 17.4055 14.6792 17.3136 14.7574 17.2362C14.8355 17.1589 14.9282 17.0977 15.03 17.0562C15.1318 17.0147 15.2407 16.9936 15.3507 16.9942C15.4606 16.9948 15.5694 17.017 15.6707 17.0596C15.7721 17.1022 15.864 17.1644 15.9413 17.2426C16.0187 17.3207 16.0798 17.4133 16.1214 17.5151C16.1629 17.6169 16.184 17.7259 16.1834 17.8359C16.1767 19.0437 16.1477 20.0494 15.997 20.8721C15.8407 21.7183 15.5449 22.4383 14.9589 23.0243C14.288 23.6963 13.4408 23.9843 12.4361 24.1205C11.4695 24.25 10.2383 24.25 8.71234 24.25H7.4733C5.94627 24.25 4.71616 24.25 3.74837 24.1205C2.74375 23.9843 1.89763 23.6963 1.22565 23.0243C0.553665 22.3523 0.265672 21.5062 0.12949 20.5015C4.8548e-06 19.5337 5.71974e-06 18.3025 5.71974e-06 16.7765V7.72349C5.71974e-06 6.19754 4.8548e-06 4.96628 0.12949 3.99847C0.264556 2.99381 0.553665 2.14767 1.22565 1.47567C1.89763 0.803675 2.74375 0.515674 3.74837 0.380605C4.71616 0.25 5.94739 0.25 7.4733 0.25H8.71234Z" fill="white"/>
<path d="M8.65094 11.413C8.4289 11.413 8.21596 11.5012 8.05896 11.6582C7.90196 11.8152 7.81375 12.0281 7.81375 12.2502C7.81375 12.4722 7.90196 12.6852 8.05896 12.8422C8.21596 12.9992 8.4289 13.0874 8.65094 13.0874H20.8996L18.7106 14.9627C18.5418 15.1072 18.4374 15.3128 18.4202 15.5343C18.4031 15.7558 18.4746 15.975 18.6191 16.1438C18.7635 16.3125 18.9691 16.417 19.1906 16.4341C19.4121 16.4513 19.6313 16.3798 19.8 16.2353L23.7069 12.8865C23.7988 12.8079 23.8726 12.7103 23.9232 12.6004C23.9738 12.4906 24 12.3711 24 12.2502C24 12.1292 23.9738 12.0097 23.9232 11.8999C23.8726 11.7901 23.7988 11.6925 23.7069 11.6139L19.8 8.26506C19.7165 8.19352 19.6197 8.13914 19.5151 8.10503C19.4105 8.07091 19.3003 8.05773 19.1906 8.06623C19.0809 8.07472 18.974 8.10474 18.8759 8.15456C18.7779 8.20438 18.6906 8.27303 18.6191 8.35659C18.5475 8.44015 18.4931 8.53698 18.459 8.64155C18.4249 8.74612 18.4117 8.85639 18.4202 8.96606C18.4287 9.07573 18.4587 9.18265 18.5086 9.28072C18.5584 9.37878 18.627 9.46608 18.7106 9.53761L20.8984 11.413H8.65094Z" fill="white"/>
</svg>
