<svg width="23" height="24" viewBox="0 0 23 24" fill="none" xmlns="http://www.w3.org/2000/svg">
<path fill-rule="evenodd" clip-rule="evenodd" d="M15.3599 21.4737C15.3601 22.111 15.1149 22.7249 14.6735 23.1923C14.2321 23.6596 13.6271 23.9459 12.9797 23.9937L12.7867 24H10.2135C9.5643 24.0002 8.93903 23.7595 8.46301 23.3261C7.98699 22.8927 7.69541 22.2987 7.64672 21.6632L7.64028 21.4737H15.3599ZM11.5001 1.20514e-09C13.8353 -3.78253e-05 16.0792 0.890392 17.7584 2.48346C19.4377 4.07653 20.4211 6.24769 20.5012 8.53895L20.5063 8.8421V13.5966L22.8505 18.1996C22.9528 18.4004 23.004 18.6226 22.9998 18.8471C22.9955 19.0716 22.9358 19.2918 22.8259 19.4887C22.716 19.6857 22.5591 19.8535 22.3687 19.9779C22.1783 20.1023 21.96 20.1795 21.7325 20.2029L21.5845 20.2105H1.41568C1.18688 20.2106 0.96147 20.1562 0.758771 20.052C0.556071 19.9478 0.382127 19.7969 0.251843 19.6122C0.121559 19.4276 0.0388201 19.2147 0.0107166 18.9917C-0.0173869 18.7688 0.009983 18.5425 0.0904807 18.3322L0.149665 18.1996L2.49386 13.5966V8.8421C2.49386 6.49703 3.44273 4.24801 5.13173 2.58979C6.82072 0.931576 9.1115 1.20514e-09 11.5001 1.20514e-09ZM11.5001 2.52632C9.84236 2.52641 8.24864 3.15479 7.0513 4.28041C5.85397 5.40604 5.14545 6.942 5.0735 8.568L5.06707 8.8421V13.5966C5.06708 13.9099 5.00775 14.2204 4.89209 14.5124L4.7956 14.7272L3.29027 17.6842H19.7112L18.2059 14.7259C18.0631 14.4458 17.9745 14.1421 17.9447 13.8303L17.9331 13.5966V8.8421C17.9331 7.16705 17.2554 5.56061 16.0489 4.37617C14.8425 3.19173 13.2062 2.52632 11.5001 2.52632Z" fill="white"/>
</svg>
