<svg width="24" height="26" viewBox="0 0 24 26" fill="none" xmlns="http://www.w3.org/2000/svg">
<path d="M2.27077 11.368C2.82262 11.7232 3.17731 12.3304 3.17731 13C3.17731 13.6696 2.82262 14.2768 2.27077 14.632C1.89625 14.8756 1.65358 15.0688 1.48207 15.2992C1.2955 15.5493 1.15867 15.8348 1.0794 16.1393C1.00012 16.4439 0.979956 16.7615 1.02005 17.074C1.08072 17.5468 1.35256 18.0316 1.89509 19C2.43994 19.9684 2.71179 20.452 3.0793 20.7436C3.32249 20.9355 3.60005 21.0762 3.89612 21.1578C4.1922 21.2393 4.501 21.26 4.80487 21.2188C5.08488 21.1804 5.3684 21.0628 5.76041 20.8492C6.04096 20.6913 6.35593 20.6093 6.67574 20.611C6.99555 20.6127 7.30969 20.6979 7.58865 20.8588C8.15218 21.1948 8.48702 21.8128 8.51036 22.4824C8.52669 22.9384 8.56869 23.2504 8.6772 23.518C8.79447 23.8094 8.96642 24.0741 9.18323 24.2971C9.40004 24.5201 9.65745 24.697 9.94075 24.8176C10.3689 25 10.9126 25 12 25C13.0874 25 13.6311 25 14.0593 24.8176C14.3426 24.697 14.6 24.5201 14.8168 24.2971C15.0336 24.0741 15.2055 23.8094 15.3228 23.518C15.4301 23.2504 15.4733 22.9384 15.4896 22.4824C15.513 21.8128 15.8478 21.1936 16.4113 20.8588C16.6903 20.6979 17.0045 20.6127 17.3243 20.611C17.6441 20.6093 17.959 20.6913 18.2396 20.8492C18.6316 21.0628 18.9163 21.1804 19.1963 21.2188C19.8096 21.3018 20.4299 21.1308 20.9207 20.7436C21.2882 20.4532 21.5601 19.9684 22.1037 19C22.3464 18.568 22.5343 18.2332 22.6743 17.9524M21.7292 14.6332C21.4561 14.4624 21.2296 14.2231 21.071 13.9376C20.9125 13.6522 20.827 13.3299 20.8227 13.0012C20.8227 12.3304 21.1774 11.7232 21.7292 11.3668C22.1037 11.1244 22.3453 10.9312 22.5179 10.7008C22.7045 10.4507 22.8413 10.1652 22.9206 9.86067C22.9999 9.55615 23.02 9.23854 22.98 8.926C22.9193 8.4532 22.6474 7.9684 22.1049 7C21.5601 6.0316 21.2882 5.548 20.9207 5.2564C20.6775 5.06451 20.4 4.92378 20.1039 4.84224C19.8078 4.7607 19.499 4.73996 19.1951 4.7812C18.9151 4.8196 18.6316 4.9372 18.2384 5.1508C17.958 5.3085 17.6433 5.39035 17.3237 5.38867C17.0041 5.38699 16.6902 5.30184 16.4113 5.1412C16.1365 4.97309 15.9078 4.73589 15.7465 4.45188C15.5853 4.16788 15.4969 3.84639 15.4896 3.5176C15.4733 3.0616 15.4313 2.7496 15.3228 2.482C15.2055 2.19062 15.0336 1.92586 14.8168 1.70287C14.6 1.47987 14.3426 1.30302 14.0593 1.1824C13.6311 1 13.0874 1 12 1C10.9126 1 10.3689 1 9.94075 1.1824C9.65745 1.30302 9.40004 1.47987 9.18323 1.70287C8.96642 1.92586 8.79447 2.19062 8.6772 2.482C8.56986 2.7496 8.52669 3.0616 8.51036 3.5176C8.50309 3.84639 8.41469 4.16788 8.25346 4.45188C8.09223 4.73589 7.86347 4.97309 7.58865 5.1412C7.30969 5.30205 6.99555 5.38732 6.67574 5.389C6.35593 5.39068 6.04096 5.30871 5.76041 5.1508C5.3684 4.9372 5.08372 4.8196 4.8037 4.7812C4.19039 4.69824 3.57014 4.86917 3.0793 5.2564C2.71295 5.548 2.43994 6.0316 1.89625 7C1.65358 7.432 1.46573 7.7668 1.32573 8.0476M15.5001 13C15.5001 14.9882 13.9331 16.6 12 16.6C10.0669 16.6 8.49986 14.9882 8.49986 13C8.49986 11.0118 10.0669 9.4 12 9.4C13.9331 9.4 15.5001 11.0118 15.5001 13Z" stroke="white" stroke-width="2" stroke-linecap="round"/>
</svg>
